<mxfile host="Electron" modified="2023-05-30T19:30:19.072Z" agent="Mozilla/5.0 (Macintosh; Intel Mac OS X 10_15_7) AppleWebKit/537.36 (KHTML, like Gecko) draw.io/21.2.1 Chrome/112.0.5615.87 Electron/24.1.2 Safari/537.36" etag="V7t9hpDYEQXPgX7ElEVC" version="21.2.1" type="device">
  <diagram name="Page-1" id="H1nZVYqxkzLZFgEqRADx">
    <mxGraphModel dx="-1844" dy="1070" grid="1" gridSize="10" guides="1" tooltips="1" connect="1" arrows="1" fold="1" page="1" pageScale="1" pageWidth="850" pageHeight="1100" math="0" shadow="0">
      <root>
        <mxCell id="0" />
        <mxCell id="1" parent="0" />
        <mxCell id="AsBp8XiL8Dx4Y6rQVwFH-38454" value="S, W: 110, H: 110, ORDER: 22, GC: {26, 28, 24, 2, 17, 21, 13, 4, 18, 3, 15, 16, 12, 27, 22, 8, 6, 7, 14, 23, 60, 50} " style="text;html=1;strokeColor=none;fillColor=none;align=center;verticalAlign=middle;whiteSpace=wrap;rounded=0;flipV=1;" parent="1" vertex="1">
          <mxGeometry x="3500" width="1100" height="30" as="geometry" />
        </mxCell>
        <mxCell id="AsBp8XiL8Dx4Y6rQVwFH-38638" value="S, W: 110, H: 110, ORDER: 22, GC: {26, 28, 24, 2, 21, 17, 18, 16, 1, 19, 9, 12, 22, 8, 6, 3, 27, 4, 14, 23, 60, 50} " style="text;html=1;strokeColor=none;fillColor=none;align=center;verticalAlign=middle;whiteSpace=wrap;rounded=0;flipV=1;" parent="1" vertex="1">
          <mxGeometry x="3500" y="1200" width="1100" height="30" as="geometry" />
        </mxCell>
        <mxCell id="g1F-KyARFCKWPQCDDROc-1" value="" style="group;flipV=1;" parent="1" vertex="1" connectable="0">
          <mxGeometry x="3500" y="50" width="1100" height="1100" as="geometry" />
        </mxCell>
        <mxCell id="761dnnyQ54j-Cl0NHfQN-38455" value="26" style="rounded=0;whiteSpace=wrap;html=1;" parent="g1F-KyARFCKWPQCDDROc-1" vertex="1">
          <mxGeometry y="840" width="260" height="260" as="geometry" />
        </mxCell>
        <mxCell id="761dnnyQ54j-Cl0NHfQN-38456" value="28" style="rounded=0;whiteSpace=wrap;html=1;" parent="g1F-KyARFCKWPQCDDROc-1" vertex="1">
          <mxGeometry x="260" y="820" width="280" height="280" as="geometry" />
        </mxCell>
        <mxCell id="761dnnyQ54j-Cl0NHfQN-38457" value="24" style="rounded=0;whiteSpace=wrap;html=1;" parent="g1F-KyARFCKWPQCDDROc-1" vertex="1">
          <mxGeometry y="600" width="240" height="240" as="geometry" />
        </mxCell>
        <mxCell id="761dnnyQ54j-Cl0NHfQN-38458" value="2" style="rounded=0;whiteSpace=wrap;html=1;" parent="g1F-KyARFCKWPQCDDROc-1" vertex="1">
          <mxGeometry x="240" y="820" width="20" height="20" as="geometry" />
        </mxCell>
        <mxCell id="761dnnyQ54j-Cl0NHfQN-38459" value="17" style="rounded=0;whiteSpace=wrap;html=1;" parent="g1F-KyARFCKWPQCDDROc-1" vertex="1">
          <mxGeometry x="540" y="930" width="170" height="170" as="geometry" />
        </mxCell>
        <mxCell id="761dnnyQ54j-Cl0NHfQN-38460" value="21" style="rounded=0;whiteSpace=wrap;html=1;" parent="g1F-KyARFCKWPQCDDROc-1" vertex="1">
          <mxGeometry x="710" y="890" width="210" height="210" as="geometry" />
        </mxCell>
        <mxCell id="761dnnyQ54j-Cl0NHfQN-38461" value="13" style="rounded=0;whiteSpace=wrap;html=1;" parent="g1F-KyARFCKWPQCDDROc-1" vertex="1">
          <mxGeometry x="540" y="800" width="130" height="130" as="geometry" />
        </mxCell>
        <mxCell id="761dnnyQ54j-Cl0NHfQN-38462" value="4" style="rounded=0;whiteSpace=wrap;html=1;" parent="g1F-KyARFCKWPQCDDROc-1" vertex="1">
          <mxGeometry x="670" y="890" width="40" height="40" as="geometry" />
        </mxCell>
        <mxCell id="761dnnyQ54j-Cl0NHfQN-38463" value="18" style="rounded=0;whiteSpace=wrap;html=1;" parent="g1F-KyARFCKWPQCDDROc-1" vertex="1">
          <mxGeometry x="920" y="920" width="180" height="180" as="geometry" />
        </mxCell>
        <mxCell id="761dnnyQ54j-Cl0NHfQN-38464" value="3" style="rounded=0;whiteSpace=wrap;html=1;" parent="g1F-KyARFCKWPQCDDROc-1" vertex="1">
          <mxGeometry x="920" y="890" width="30" height="30" as="geometry" />
        </mxCell>
        <mxCell id="761dnnyQ54j-Cl0NHfQN-38465" value="15" style="rounded=0;whiteSpace=wrap;html=1;" parent="g1F-KyARFCKWPQCDDROc-1" vertex="1">
          <mxGeometry x="950" y="770" width="150" height="150" as="geometry" />
        </mxCell>
        <mxCell id="761dnnyQ54j-Cl0NHfQN-38466" value="16" style="rounded=0;whiteSpace=wrap;html=1;" parent="g1F-KyARFCKWPQCDDROc-1" vertex="1">
          <mxGeometry x="670" y="730" width="160" height="160" as="geometry" />
        </mxCell>
        <mxCell id="761dnnyQ54j-Cl0NHfQN-38467" value="12" style="rounded=0;whiteSpace=wrap;html=1;" parent="g1F-KyARFCKWPQCDDROc-1" vertex="1">
          <mxGeometry x="830" y="770" width="120" height="120" as="geometry" />
        </mxCell>
        <mxCell id="761dnnyQ54j-Cl0NHfQN-38468" value="27" style="rounded=0;whiteSpace=wrap;html=1;" parent="g1F-KyARFCKWPQCDDROc-1" vertex="1">
          <mxGeometry x="830" y="500" width="270" height="270" as="geometry" />
        </mxCell>
        <mxCell id="761dnnyQ54j-Cl0NHfQN-38469" value="22" style="rounded=0;whiteSpace=wrap;html=1;" parent="g1F-KyARFCKWPQCDDROc-1" vertex="1">
          <mxGeometry x="240" y="600" width="220" height="220" as="geometry" />
        </mxCell>
        <mxCell id="761dnnyQ54j-Cl0NHfQN-38470" value="8" style="rounded=0;whiteSpace=wrap;html=1;" parent="g1F-KyARFCKWPQCDDROc-1" vertex="1">
          <mxGeometry x="460" y="740" width="80" height="80" as="geometry" />
        </mxCell>
        <mxCell id="761dnnyQ54j-Cl0NHfQN-38471" value="6" style="rounded=0;whiteSpace=wrap;html=1;" parent="g1F-KyARFCKWPQCDDROc-1" vertex="1">
          <mxGeometry x="540" y="740" width="60" height="60" as="geometry" />
        </mxCell>
        <mxCell id="761dnnyQ54j-Cl0NHfQN-38472" value="7" style="rounded=0;whiteSpace=wrap;html=1;" parent="g1F-KyARFCKWPQCDDROc-1" vertex="1">
          <mxGeometry x="600" y="730" width="70" height="70" as="geometry" />
        </mxCell>
        <mxCell id="761dnnyQ54j-Cl0NHfQN-38473" value="14" style="rounded=0;whiteSpace=wrap;html=1;" parent="g1F-KyARFCKWPQCDDROc-1" vertex="1">
          <mxGeometry x="460" y="600" width="140" height="140" as="geometry" />
        </mxCell>
        <mxCell id="761dnnyQ54j-Cl0NHfQN-38474" value="23" style="rounded=0;whiteSpace=wrap;html=1;" parent="g1F-KyARFCKWPQCDDROc-1" vertex="1">
          <mxGeometry x="600" y="500" width="230" height="230" as="geometry" />
        </mxCell>
        <mxCell id="761dnnyQ54j-Cl0NHfQN-38475" value="60" style="rounded=0;whiteSpace=wrap;html=1;" parent="g1F-KyARFCKWPQCDDROc-1" vertex="1">
          <mxGeometry width="600" height="600" as="geometry" />
        </mxCell>
        <mxCell id="761dnnyQ54j-Cl0NHfQN-38476" value="50" style="rounded=0;whiteSpace=wrap;html=1;" parent="g1F-KyARFCKWPQCDDROc-1" vertex="1">
          <mxGeometry x="600" width="500" height="500" as="geometry" />
        </mxCell>
        <mxCell id="g1F-KyARFCKWPQCDDROc-2" value="" style="group;flipV=1;" parent="1" vertex="1" connectable="0">
          <mxGeometry x="3500" y="1250" width="1100" height="1100" as="geometry" />
        </mxCell>
        <mxCell id="761dnnyQ54j-Cl0NHfQN-38639" value="26" style="rounded=0;whiteSpace=wrap;html=1;" parent="g1F-KyARFCKWPQCDDROc-2" vertex="1">
          <mxGeometry y="840" width="260" height="260" as="geometry" />
        </mxCell>
        <mxCell id="761dnnyQ54j-Cl0NHfQN-38640" value="28" style="rounded=0;whiteSpace=wrap;html=1;" parent="g1F-KyARFCKWPQCDDROc-2" vertex="1">
          <mxGeometry x="260" y="820" width="280" height="280" as="geometry" />
        </mxCell>
        <mxCell id="761dnnyQ54j-Cl0NHfQN-38641" value="24" style="rounded=0;whiteSpace=wrap;html=1;" parent="g1F-KyARFCKWPQCDDROc-2" vertex="1">
          <mxGeometry y="600" width="240" height="240" as="geometry" />
        </mxCell>
        <mxCell id="761dnnyQ54j-Cl0NHfQN-38642" value="2" style="rounded=0;whiteSpace=wrap;html=1;" parent="g1F-KyARFCKWPQCDDROc-2" vertex="1">
          <mxGeometry x="240" y="820" width="20" height="20" as="geometry" />
        </mxCell>
        <mxCell id="761dnnyQ54j-Cl0NHfQN-38643" value="21" style="rounded=0;whiteSpace=wrap;html=1;" parent="g1F-KyARFCKWPQCDDROc-2" vertex="1">
          <mxGeometry x="540" y="890" width="210" height="210" as="geometry" />
        </mxCell>
        <mxCell id="761dnnyQ54j-Cl0NHfQN-38644" value="17" style="rounded=0;whiteSpace=wrap;html=1;" parent="g1F-KyARFCKWPQCDDROc-2" vertex="1">
          <mxGeometry x="750" y="930" width="170" height="170" as="geometry" />
        </mxCell>
        <mxCell id="761dnnyQ54j-Cl0NHfQN-38645" value="18" style="rounded=0;whiteSpace=wrap;html=1;" parent="g1F-KyARFCKWPQCDDROc-2" vertex="1">
          <mxGeometry x="920" y="920" width="180" height="180" as="geometry" />
        </mxCell>
        <mxCell id="761dnnyQ54j-Cl0NHfQN-38646" value="16" style="rounded=0;whiteSpace=wrap;html=1;" parent="g1F-KyARFCKWPQCDDROc-2" vertex="1">
          <mxGeometry x="750" y="770" width="160" height="160" as="geometry" />
        </mxCell>
        <mxCell id="761dnnyQ54j-Cl0NHfQN-38647" value="1" style="rounded=0;whiteSpace=wrap;html=1;" parent="g1F-KyARFCKWPQCDDROc-2" vertex="1">
          <mxGeometry x="910" y="920" width="10" height="10" as="geometry" />
        </mxCell>
        <mxCell id="761dnnyQ54j-Cl0NHfQN-38648" value="19" style="rounded=0;whiteSpace=wrap;html=1;" parent="g1F-KyARFCKWPQCDDROc-2" vertex="1">
          <mxGeometry x="910" y="730" width="190" height="190" as="geometry" />
        </mxCell>
        <mxCell id="761dnnyQ54j-Cl0NHfQN-38649" value="9" style="rounded=0;whiteSpace=wrap;html=1;" parent="g1F-KyARFCKWPQCDDROc-2" vertex="1">
          <mxGeometry x="540" y="800" width="90" height="90" as="geometry" />
        </mxCell>
        <mxCell id="761dnnyQ54j-Cl0NHfQN-38650" value="12" style="rounded=0;whiteSpace=wrap;html=1;" parent="g1F-KyARFCKWPQCDDROc-2" vertex="1">
          <mxGeometry x="630" y="770" width="120" height="120" as="geometry" />
        </mxCell>
        <mxCell id="761dnnyQ54j-Cl0NHfQN-38651" value="22" style="rounded=0;whiteSpace=wrap;html=1;" parent="g1F-KyARFCKWPQCDDROc-2" vertex="1">
          <mxGeometry x="240" y="600" width="220" height="220" as="geometry" />
        </mxCell>
        <mxCell id="761dnnyQ54j-Cl0NHfQN-38652" value="8" style="rounded=0;whiteSpace=wrap;html=1;" parent="g1F-KyARFCKWPQCDDROc-2" vertex="1">
          <mxGeometry x="460" y="740" width="80" height="80" as="geometry" />
        </mxCell>
        <mxCell id="761dnnyQ54j-Cl0NHfQN-38653" value="6" style="rounded=0;whiteSpace=wrap;html=1;" parent="g1F-KyARFCKWPQCDDROc-2" vertex="1">
          <mxGeometry x="540" y="740" width="60" height="60" as="geometry" />
        </mxCell>
        <mxCell id="761dnnyQ54j-Cl0NHfQN-38654" value="3" style="rounded=0;whiteSpace=wrap;html=1;" parent="g1F-KyARFCKWPQCDDROc-2" vertex="1">
          <mxGeometry x="600" y="770" width="30" height="30" as="geometry" />
        </mxCell>
        <mxCell id="761dnnyQ54j-Cl0NHfQN-38655" value="27" style="rounded=0;whiteSpace=wrap;html=1;" parent="g1F-KyARFCKWPQCDDROc-2" vertex="1">
          <mxGeometry x="600" y="500" width="270" height="270" as="geometry" />
        </mxCell>
        <mxCell id="761dnnyQ54j-Cl0NHfQN-38656" value="4" style="rounded=0;whiteSpace=wrap;html=1;" parent="g1F-KyARFCKWPQCDDROc-2" vertex="1">
          <mxGeometry x="870" y="730" width="40" height="40" as="geometry" />
        </mxCell>
        <mxCell id="761dnnyQ54j-Cl0NHfQN-38657" value="14" style="rounded=0;whiteSpace=wrap;html=1;" parent="g1F-KyARFCKWPQCDDROc-2" vertex="1">
          <mxGeometry x="460" y="600" width="140" height="140" as="geometry" />
        </mxCell>
        <mxCell id="761dnnyQ54j-Cl0NHfQN-38658" value="23" style="rounded=0;whiteSpace=wrap;html=1;" parent="g1F-KyARFCKWPQCDDROc-2" vertex="1">
          <mxGeometry x="870" y="500" width="230" height="230" as="geometry" />
        </mxCell>
        <mxCell id="761dnnyQ54j-Cl0NHfQN-38659" value="60" style="rounded=0;whiteSpace=wrap;html=1;" parent="g1F-KyARFCKWPQCDDROc-2" vertex="1">
          <mxGeometry width="600" height="600" as="geometry" />
        </mxCell>
        <mxCell id="761dnnyQ54j-Cl0NHfQN-38660" value="50" style="rounded=0;whiteSpace=wrap;html=1;" parent="g1F-KyARFCKWPQCDDROc-2" vertex="1">
          <mxGeometry x="600" width="500" height="500" as="geometry" />
        </mxCell>
        <mxCell id="g1F-KyARFCKWPQCDDROc-3" value="X" style="text;html=1;strokeColor=none;fillColor=none;align=center;verticalAlign=middle;whiteSpace=wrap;rounded=0;" parent="1" vertex="1">
          <mxGeometry x="4410" width="60" height="30" as="geometry" />
        </mxCell>
        <mxCell id="g1F-KyARFCKWPQCDDROc-4" value="Y" style="text;html=1;align=center;verticalAlign=middle;resizable=0;points=[];autosize=1;strokeColor=none;fillColor=none;" parent="1" vertex="1">
          <mxGeometry x="4440" y="1200" width="30" height="30" as="geometry" />
        </mxCell>
      </root>
    </mxGraphModel>
  </diagram>
</mxfile>
